<?xml version="1.0" encoding="utf-8"?>
<!-- Generator: Adobe Illustrator 26.4.1, SVG Export Plug-In . SVG Version: 6.00 Build 0)  -->
<svg version="1.1" id="Layer_1" xmlns="http://www.w3.org/2000/svg" xmlns:xlink="http://www.w3.org/1999/xlink" x="0px" y="0px" width="100%" height="100%"
	 viewBox="0 0 200 206.7" style="enable-background:new 0 0 200 206.7;" xml:space="preserve">
<style type="text/css">
	.st0{fill:#FFA500;}
	.st1{fill:#0060B9;}
</style>
<g>
	<path class="st0" d="M29.1,25.1c0-5.5,4.4-9.9,9.9-9.9h140.3v-0.3c0-5.5-4.4-9.9-9.9-9.9H25.3c-5.5,0-9.9,4.4-9.9,9.9v162.3
		c0,5.5,4.4,9.9,9.9,9.9h3.8L29.1,25.1L29.1,25.1z"/>
</g>
<g>
	<path class="st0" d="M145.7,129c0,0,13.3,13.4-13.9,13.9s-37-16.9-37-16.9l46.7-2.9L145.7,129L145.7,129z"/>
</g>
<g>
	<path class="st0" d="M144.9,46.3c0,0,0.9-20.2-12.5-19.9c-8.3,0.2-16.3,0.2-21.3,0.1s-10.1,1-14.7,3.2c-4.3,2.1-8.5,5.3-9.2,10
		c-1.5,10.1-1.5,15.8-1.5,15.8l2.7,4l12.7-1L144.9,46.3L144.9,46.3z"/>
</g>
<g>
	<path class="st0" d="M134.7,103.8c0,0,22.3-17,19.1-26.6c-3.2-9.6-12-7.1-13.3-6.4s-4.9,3.7-4.9,3.7L132.1,88c0,0,2.8,4.9,2.1,7.1
		S134.7,103.8,134.7,103.8L134.7,103.8z"/>
</g>
<g>
	<path class="st0" d="M80.1,101.3c0,0-17.2,7.7-21-6.5s4.6-21.1,9.3-21.1s9,4,10.4,9C80.3,87.6,80.1,101.3,80.1,101.3L80.1,101.3z"
		/>
</g>
<g>
	<path class="st1" d="M183.1,199.3H39c-6.6,0-11.9-5.3-11.9-11.9V25.1c0-6.6,5.3-11.9,11.9-11.9h144.1c6.6,0,11.9,5.3,11.9,11.9
		v162.3C195,194,189.6,199.3,183.1,199.3z M39,17.2c-4.4,0-7.9,3.5-7.9,7.9v162.3c0,4.4,3.5,7.9,7.9,7.9h144.1
		c4.4,0,7.9-3.5,7.9-7.9V25.1c0-4.4-3.5-7.9-7.9-7.9H39z"/>
</g>
<g>
	<path class="st1" d="M66.9,101.3c-2.8,0-5.6-0.4-8.2-1.7c-4.2-2-7-5.7-8.4-10.9c-3.3-12.6,0.6-20.3,3.2-23.7
		c2.9-3.8,7-6.2,10.7-6.2c6.7,0,13.2,5.5,15.4,13.1c1.7,5.8,1.8,20.2,1.8,23.9l1.5,1.5l-2.7,1.2C79.8,98.6,73.7,101.3,66.9,101.3z
		 M64.2,62.7c-2,0-5.1,1.4-7.5,4.6c-2.2,2.9-5.4,9.3-2.5,20.3c1.1,4.1,3.1,6.8,6.3,8.3c5.9,2.8,14,0.4,17-0.7
		c0-4.2-0.1-17.3-1.6-22.3C74.1,67.1,69.1,62.7,64.2,62.7z"/>
</g>
<g>
	<ellipse class="st1" cx="106.9" cy="74.6" rx="5.3" ry="7.1"/>
</g>
<g>
	<ellipse class="st1" cx="128.4" cy="74.6" rx="5.4" ry="7.1"/>
</g>
<g>
	<path class="st1" d="M95.2,68.5l-0.9-3.9c1.8-0.6,43.8-13.8,57.5-12.6c3.7,0.3,7.6,1,8.1,3.9c0.5,3.1-3.7,5.5-6.3,6.7l-0.4,0.1
		l-15.6,3.8l-0.2,0C137.1,66.5,110,66.4,95.2,68.5z M149.8,55.9c-7.9,0-23.3,3.7-35.6,7.1c11-0.5,21.1-0.5,22.9-0.5l15-3.6
		c1.3-0.6,2.7-1.5,3.4-2.2c-0.6-0.2-1.8-0.5-4.1-0.7C151,55.9,150.4,55.9,149.8,55.9z"/>
</g>
<g>
	<path class="st1" d="M75.6,71.8l-4-5.9l0-0.6c0-0.3,0-6.7,1.7-17.9c0.8-5.1,4.6-9.4,11.4-12.7c5.2-2.5,11.2-3.8,17.3-3.7
		c4.6,0.1,13.9,0.1,23.7-0.1c4-0.1,7.3,1.2,10,3.9c6.6,6.7,6.1,19.9,6.1,20.5l0,0.8l-1,0.9L91,70.6L75.6,71.8z M75.6,64.6l2,3
		l12.8-1l47.3-13.1c-0.1-3.3-0.7-11.7-4.9-16.1c-1.8-1.9-4.1-2.8-7-2.7c-9.9,0.2-19.2,0.2-23.9,0.1C96.5,34.8,91,36,86.4,38.2
		c-3.8,1.8-8.5,5-9.2,9.7C75.9,56.9,75.6,62.8,75.6,64.6z"/>
</g>
<g>
	<path class="st1" d="M137.1,100.9h-2.3l-0.3-1.6c-0.3-1.6-1.4-7.2-0.5-9.8c0.2-0.7-0.7-3.4-1.9-5.5l-0.4-0.7l3.9-14.8l0.5-0.4
		c0.4-0.3,3.7-3.1,5.2-3.9c1.3-0.8,5.4-1.9,9.3-0.4c2.2,0.9,5.2,2.9,6.9,7.8c3.5,10.6-17.4,27-19.8,28.8L137.1,100.9z M135.9,82.8
		c1,1.8,2.7,5.6,1.8,8c-0.2,0.7-0.1,2.4,0.1,4.4c7.9-6.6,17.6-16.9,15.8-22.3c-0.9-2.7-2.4-4.5-4.4-5.3c-2.6-1-5.4-0.2-6,0.1
		c-0.7,0.4-2.7,2-4.1,3.1L135.9,82.8z"/>
</g>
<g>
	<path class="st1" d="M119.3,144.4c-0.3,0-0.5,0-0.7,0c-1.2-0.1-27.9-1.6-31-16c-2.3-10.9,10.3-26.5,16.4-33.2c-0.5,0-1,0-1.7,0.1
		c-3.2,0.2-5.4-0.7-6.6-2.5c-1-1.4-1-3.1-0.7-4.4c-3-1.4-8.7-4.8-9.3-11.5c-0.7-7.4,5.3-11.2,8.7-12.3l0.2-0.1l0.2,0
		c1.5-0.1,36.5-1.8,38.3-1.9c2.7-0.1,4.8,3.3,6.1,6.2l0.3,0.7l-3.6,13.3c2.2,4.2,2.4,7.3,0.8,9.4c-1.3,1.7-3.4,2.3-5.3,2.4
		c3.9,6.1,11.5,18.3,12.7,21.2c1.6,3.9,1.7,18.5-2.8,23.7C137.3,144,123.6,144.4,119.3,144.4z M109.7,94.9c-6,6-20.3,22.9-18.2,32.7
		c2,9.5,20.4,12.5,27.2,12.9c6.7,0.1,17.3-1,19.6-3.5c3.1-3.5,3.5-16.3,2.2-19.5c-1.2-2.8-10.9-18.2-14.5-23.9l-2.6-4l4.7,1
		c1.8,0.4,4.7,0.4,5.5-0.6c0.2-0.3,0.8-1.7-1.4-5.8l-0.4-0.7l3.6-13.4c-0.8-1.5-1.7-2.9-2.3-3.3c-3.4,0.2-34.4,1.7-37.7,1.9
		c-1.1,0.4-6.2,2.6-5.6,8c0.6,6.3,8.3,8.8,8.4,8.8l2.2,0.7l-1,2.1c-0.2,0.5-0.6,1.9-0.2,2.5c0.3,0.5,1.5,0.8,3.1,0.7
		c7.1-0.3,8.2-0.4,8.5,1.6C110.7,93.6,110.4,94.4,109.7,94.9z M132.9,66.6L132.9,66.6L132.9,66.6z"/>
</g>
<g>
	<path class="st1" d="M120.3,89c0,0,4.2-5.3,8.9-4.4c4.7,0.9,0.7,4.8-0.8,4.8S120.3,89.1,120.3,89L120.3,89z"/>
</g>
<g>
	<path class="st1" d="M113.7,90.1c0,0-4.2-5.3-8.9-4.4s-0.7,4.8,0.8,4.8S113.6,90.1,113.7,90.1L113.7,90.1z"/>
</g>
<g>
	<polygon class="st1" points="88.3,145.4 78.8,121.9 72.5,130.4 77.4,96.3 81.4,96.9 78.7,115.3 79.9,113.7 84.3,124.7 84.3,111.3 
		91.9,128.9 88.3,130.4 	"/>
</g>
<g>
	<path class="st1" d="M41,197.5l-4-0.5c0.1-0.9,2.5-21.2,6.6-28.3c2.3-3.9,7.6-5.6,13.2-7.4c5.7-1.8,11.6-3.7,15.2-7.9
		c5.8-6.7,5.8-27.9,5.3-35.6l4-0.2c0.1,1.2,1.7,29.1-6.3,38.4c-4.3,5-11,7.2-17,9.1c-4.9,1.6-9.5,3-11,5.6
		C44.1,176.1,41.7,191.9,41,197.5z"/>
</g>
<g>
	<path class="st1" d="M135,195.9c0-0.1,0-11.3-1.3-21.1c-0.7-5.3-8-8.4-14.5-11.1c-4.3-1.8-8.1-3.4-10.2-5.6
		c-5.4-5.9-4.2-17.2-4.2-17.7l4,0.4c0,0.1-1.1,10,3.1,14.5c1.5,1.6,5,3.1,8.8,4.7c7.5,3.1,15.9,6.7,16.9,14.3
		c1.3,10.2,1.3,21.2,1.3,21.7H135z"/>
</g>
<g>
	<path class="st1" d="M130.6,195.9c0,0-9.1-22-15.3-24.4c0,0,2.9,16.5-3.9,17.1c0,0-15-3.2-19.7-15.6c0,0-23.7,17.5-24.8,24.3
		L130.6,195.9L130.6,195.9z"/>
</g>
<g>
	<path class="st1" d="M122.6,137.3c-6.7,0-12.7-1.7-17.7-5l2.2-3.3c14.7,9.7,34.4,0,34.6-0.1l1.8,3.6c-0.2,0.1-5.5,2.8-12.9,4.1
		C127.8,137.1,125.1,137.3,122.6,137.3z"/>
</g>
<g>
	<path class="st1" d="M130.6,136c-0.6,0-1.3-0.3-1.7-0.9c-0.4-0.6-10-15.3-11.2-37.7c-0.1-1.1,0.8-2,1.9-2.1c1.1-0.1,2,0.8,2.1,1.9
		c1.1,21.3,10.4,35.6,10.5,35.7c0.6,0.9,0.4,2.2-0.6,2.8C131.4,135.9,131,136,130.6,136z"/>
</g>
<g>
	<path class="st1" d="M129.8,134.7c0,0,9.2,15.8,4.1,18S115,136.6,115,136.6L129.8,134.7z"/>
</g>
<g>
	<path class="st1" d="M65.7,199.3C65.7,199.3,65.7,199.3,65.7,199.3c-1.1,0-2-0.9-2-2c0.1-9.3,5.8-19.4,6-19.8
		c0.5-1,1.8-1.3,2.7-0.8c1,0.5,1.3,1.8,0.8,2.7c-0.1,0.1-5.4,9.6-5.5,17.9C67.7,198.4,66.8,199.3,65.7,199.3z"/>
</g>
<g>
	<ellipse transform="matrix(0.3166 -0.9485 0.9485 0.3166 13.9004 114.7524)" class="st1" cx="86.6" cy="47.7" rx="3.5" ry="2.3"/>
</g>
<g>
	<ellipse transform="matrix(0.6885 -0.7253 0.7253 0.6885 7.2722 106.4924)" class="st1" cx="127.6" cy="44.8" rx="2.3" ry="3.5"/>
</g>
</svg>
